# xmcd
#
# Track frame offsets:
#	150
#	20476
#	35577
#	54470
#	74186
#	84719
#	95897
#	109428
#	123164
#	142048
#	154881
#	165826
#	178153
#	190491
#	204581
#	221116
#	234021
#	249367
#	260069
#
# Disc length: 3627 seconds
#
# Revision: 1
# Processed by: cddbd v1.5.2PL0 Copyright (c) Steve Scherf et al.
# Submitted via: audiograbber 1.83.01
#
DISCID=210e2913
DTITLE=Various Artist - The Best Collection of Country and Folk Songs Disc06
DYEAR=2001
DGENRE=Country
TTITLE0=James Taylor - You've got a friend
TTITLE1=Dawn - Tie a yellow ribbon around the old oak tree
TTITLE2=America - A horse with no name
TTITLE3=Conway Twitty and Joni Lee - Don't cry Joni
TTITLE4=Johnny Russel - Jambalaya
TTITLE5=Frankie Laine - Rose Rose I love you
TTITLE6=Patty Page - Tennesse Waltz
TTITLE7=9,999,999 - Dicky Lee
TTITLE8=Kenny Rogers and Dolly Parton - Island in the stream
TTITLE9=David Houston - My illusive dreams
TTITLE10=Everly Brothers - Devoted to you
TTITLE11=Sandy Posey - Young love
TTITLE12=Pat Boone - April love
TTITLE13=Loretta Lynn - Coal miner's daughter
TTITLE14=Eddie Rabbit - The room at the top of the stairs
TTITLE15=Lynn Anderson - Rose garden
TTITLE16=Kenny Rogers - For the good times
TTITLE17=Jimmy Rodgers - Kisses sweeter than wine
TTITLE18=Mark Dinning - Teen angel
EXTD=
EXTT0=
EXTT1=
EXTT2=
EXTT3=
EXTT4=
EXTT5=
EXTT6=
EXTT7=
EXTT8=
EXTT9=
EXTT10=
EXTT11=
EXTT12=
EXTT13=
EXTT14=
EXTT15=
EXTT16=
EXTT17=
EXTT18=
PLAYORDER=
